<?xml version="1.0" encoding="utf-8"?>
<!DOCTYPE svg PUBLIC "-//W3C//DTD SVG 1.0//EN" "http://www.w3.org/TR/2001/REC-SVG-20010904/DTD/svg10.dtd">
<svg version="1.0" xmlns="http://www.w3.org/2000/svg" width="1775px" height="907px" viewBox="0 0 1775 907" preserveAspectRatio="xMidYMid meet">
 <g fill="#f5fbf3">
  <path d="M0 453.61 l0 -453.61 887.50 0 887.50 0 0 453.61 0 453.61 -887.50 0 -887.50 0 0 -453.61z m488.25 179.35 c29.46 -5.67 54.98 -18.98 77.04 -40.43 23.42 -22.56 38.70 -50.05 45.61 -82.22 3.20 -14.91 2.96 -39.94 -0.37 -54.85 -3.08 -13.31 -9.12 -30.20 -13.07 -36.86 l-2.96 -4.68 -3.20 5.55 -3.33 5.55 2.96 6.66 c7.89 17.87 11.46 48.94 8.26 72.85 -4.07 30.57 -20.34 60.89 -42.90 79.88 -5.92 5.05 -7.89 6.04 -12.08 6.04 -18.74 0 -41.29 -15.41 -52.76 -35.99 -10.11 -18 -14.18 -44.87 -10.23 -67.55 1.11 -6.41 2.59 -11.96 3.33 -12.45 0.74 -0.37 5.79 -1.11 11.34 -1.60 12.70 -1.11 30.57 -6.90 40.55 -13.44 10.11 -6.41 26.38 -22.93 32.05 -32.30 9.12 -14.91 18.12 -44.38 14.79 -47.70 -1.11 -1.11 -5.67 -1.11 -18.98 0 -20.59 1.60 -38.46 6.16 -51.03 13.07 -5.30 2.96 -9.61 4.44 -12.82 4.44 -4.56 0 -4.93 -0.25 -4.93 -3.33 0 -1.97 1.73 -7.77 3.70 -12.94 5.79 -14.91 8.14 -31.19 6.41 -44.74 -3.20 -24.78 -17.01 -53.99 -35.50 -74.45 l-5.92 -6.66 -6.66 7.27 c-19.72 21.57 -33.77 52.51 -35.62 78.15 -0.86 12.70 1.11 25.27 5.92 38.70 1.97 5.42 3.57 11.71 3.57 13.93 0 3.82 -0.25 4.07 -4.56 4.07 -2.96 0 -8.26 -1.85 -15.16 -5.42 -19.11 -9.86 -38.09 -14.05 -57.32 -12.45 -12.20 1.11 -11.96 0.49 -8.01 16.15 2.84 11.09 11.71 30.45 17.50 37.97 18.86 24.78 47.21 40.18 73.59 40.18 6.16 0 6.16 0 7.52 4.93 2.59 9.74 3.70 25.15 2.59 37.60 -2.22 23.54 -9.98 41.29 -24.78 56.21 -12.33 12.57 -24.28 18.37 -37.72 18.37 -13.81 0 -38.34 -28.47 -48.57 -56.33 -7.15 -19.60 -8.88 -31.43 -8.26 -55.22 0.49 -18.24 0.99 -22.43 3.82 -32.05 1.85 -6.04 4.44 -13.56 5.79 -16.52 l2.34 -5.42 -3.45 -6.04 -3.57 -6.04 -5.05 11.09 c-10.48 22.56 -15.41 49.80 -12.82 71.99 3.57 30.57 13.93 55.84 32.91 80.37 24.53 31.68 61.63 52.88 101.69 58.55 9.74 1.36 26.13 0.49 38.34 -1.85z m345.02 -20.34 c0 -0.62 -1.36 -1.23 -3.08 -1.23 -1.73 0 -3.08 0.62 -3.08 1.23 0 0.74 1.36 1.23 3.08 1.23 1.73 0 3.08 -0.49 3.08 -1.23z m65.33 -1.85 c0 -0.99 -1.11 -1.85 -2.47 -1.85 -1.36 0 -2.47 0.86 -2.47 1.85 0 0.99 1.11 1.85 2.47 1.85 1.36 0 2.47 -0.86 2.47 -1.85z m302.86 -2.59 c-1.36 -4.31 -1.36 -4.31 -2.84 -1.48 -2.47 4.19 -2.10 5.92 1.23 5.92 2.84 0 2.96 -0.25 1.60 -4.44z m-351.30 -77.78 c-0.12 -5.30 -0.37 -1.23 -0.37 8.88 0 10.23 0.25 14.55 0.37 9.61 0.25 -4.93 0.25 -13.19 0 -18.49z m39.81 13.81 l0 -12.94 3.70 0 3.70 0 -3.94 -6.04 c-2.22 -3.33 -4.44 -5.79 -4.93 -5.55 -1.48 0.99 -1.23 37.47 0.25 37.47 0.74 0 1.23 -5.18 1.23 -12.94z m28.10 -6.41 c-0.25 -18.12 -0.37 -18.49 -0.62 -4.93 l-0.49 14.42 -2.96 0 -3.08 0 3.20 4.93 c1.85 2.71 3.45 4.93 3.70 4.93 0.25 0 0.37 -8.75 0.25 -19.35z m109.09 -17.01 c1.48 -0.25 4.07 -0.74 5.79 -0.99 1.73 -0.37 -2.71 -0.49 -9.86 -0.49 -7.15 0 -10.48 0.25 -7.40 0.49 2.96 0.37 5.92 1.23 6.41 1.97 0.49 0.86 0.62 8.26 0.12 16.39 -0.37 8.26 -0.25 16.02 0.37 17.26 0.74 1.60 1.23 -3.94 1.48 -15.78 0.25 -17.75 0.37 -18.24 3.08 -18.86z m43.64 8.38 c-0.12 -5.30 -0.37 -0.99 -0.37 9.49 0 10.48 0.25 14.79 0.37 9.61 0.25 -5.30 0.25 -13.93 0 -19.11z m49.92 -7.40 c0.99 -1.23 0.74 -1.60 -0.99 -1.60 -2.22 0 -2.34 0.99 -1.73 18.74 l0.62 18.86 0.37 -17.13 c0.12 -10.11 0.86 -17.87 1.73 -18.86z m120.68 0.12 c0.74 -0.86 3.57 -1.85 6.41 -2.10 3.82 -0.37 3.33 -0.49 -1.60 -0.37 l-6.78 0.12 0 19.11 -0.12 19.11 0.37 -17.13 c0.25 -9.61 0.99 -17.87 1.73 -18.74z m58.18 34.39 l-10.23 -0.49 0 -8.51 0 -8.63 8.38 -0.25 8.26 -0.25 -8.26 -0.37 -8.38 -0.49 0 -7.27 c0 -4.44 0.62 -7.64 1.60 -8.26 0.74 -0.49 5.05 -1.36 9.49 -1.73 7.64 -0.74 7.64 -0.74 -2.47 -0.62 l-10.48 0.12 -0.37 17.26 c-0.12 9.37 0 17.87 0.25 18.74 0.49 1.23 3.57 1.48 11.46 1.36 l10.85 -0.25 -10.11 -0.37z m-133.86 -30.82 c-0.25 -3.94 -0.37 -0.74 -0.37 7.03 0 7.77 0.12 10.97 0.37 7.15 0.25 -3.94 0.25 -10.35 0 -14.18z m27.12 1.85 c-0.25 -3.57 -0.37 -0.99 -0.37 5.79 0 6.78 0.12 9.74 0.37 6.53 0.25 -3.20 0.25 -8.75 0 -12.33z m-412.19 10.48 c-16.52 -0.25 -43.39 -0.25 -59.78 0 -16.52 0.12 -3.08 0.25 29.83 0.25 32.91 0 46.35 -0.12 29.95 -0.25z m663.16 0 c-15.78 -0.25 -41.66 -0.25 -57.32 0 -15.78 0.12 -2.96 0.25 28.60 0.25 31.56 0 44.38 -0.12 28.72 -0.25z m-675.24 -63.60 c11.59 -4.19 19.60 -5.42 22.19 -3.33 1.60 1.36 1.85 -1.36 1.85 -21.94 0 -25.39 -0.12 -24.90 6.90 -24.90 1.60 0 2.96 -0.49 2.96 -1.11 0 -1.23 -34.64 -3.20 -37.60 -2.22 -0.99 0.49 -1.85 1.60 -1.85 2.71 0 1.36 1.36 1.85 4.81 1.85 6.04 0 6.29 0.62 6.29 21.94 l0 16.39 -4.31 1.85 c-2.71 1.11 -8.51 1.73 -16.39 1.73 -11.09 0 -12.82 -0.37 -19.72 -3.70 -4.07 -2.10 -9.24 -5.79 -11.46 -8.26 -9.86 -11.34 -14.55 -30.32 -12.33 -50.29 3.08 -26.13 15.90 -40.18 38.46 -42.03 18.24 -1.60 30.45 4.07 36.86 17.13 l3.82 7.64 -0.62 -8.63 c-0.37 -4.68 -0.74 -11.59 -0.74 -15.16 0 -4.93 -0.49 -6.66 -2.10 -7.27 -1.11 -0.49 -2.34 -0.12 -2.59 0.62 -0.74 2.47 -7.64 1.73 -16.15 -1.85 -6.66 -2.71 -9.98 -3.20 -18.61 -3.20 -28.10 0.12 -51.15 19.60 -58.67 49.68 -7.15 28.10 11.09 62.37 38.46 72.73 14.79 5.42 25.15 5.42 40.55 -0.37z m167.89 0.86 c5.79 -2.84 17.26 -13.56 15.90 -15.04 -0.37 -0.25 -2.47 0.99 -4.81 2.71 -3.82 2.96 -5.18 3.20 -15.53 3.20 -13.19 0 -17.63 -1.48 -23.17 -7.77 -4.56 -5.30 -6.78 -11.34 -7.03 -19.85 l-0.12 -6.29 26.87 -0.37 26.75 -0.25 0 -2.96 c0 -1.60 -1.11 -6.53 -2.47 -10.85 -2.84 -9.37 -9.98 -18.24 -17.63 -22.19 -6.04 -3.08 -18.24 -3.20 -25.15 -0.37 -11.46 4.81 -20.95 16.64 -24.65 30.45 -6.04 22.93 9.37 48.20 31.93 52.63 6.78 1.36 11.09 0.62 19.11 -3.08z m86.04 0.86 c2.71 -1.23 7.40 -4.81 10.35 -7.89 7.89 -8.14 8.75 -10.35 2.47 -6.16 -4.44 2.84 -6.78 3.57 -14.91 3.94 -12.94 0.49 -17.38 -0.49 -22.80 -5.18 -6.16 -5.42 -9 -12.08 -9 -21.45 l0 -7.77 27.12 0 27.12 0 -0.74 -3.94 c-2.96 -16.64 -9.86 -26.87 -22.06 -32.66 -15.53 -7.27 -36.86 3.20 -45.98 22.80 -2.84 6.04 -3.33 8.63 -3.33 18.12 0.12 9.61 0.49 11.96 3.57 18.12 6.78 13.44 15.28 20.71 28.35 23.91 7.15 1.85 12.70 1.23 19.85 -1.85z m286.10 0.99 c7.15 -2.71 14.55 -8.51 19.23 -15.04 l2.59 -3.57 -5.30 3.45 c-4.68 3.20 -6.66 3.57 -16.64 3.94 -9.49 0.37 -12.20 0.12 -16.15 -1.97 -9.61 -4.93 -14.05 -12.82 -14.05 -24.90 l0 -7.40 26.50 0 26.50 0 0 -2.96 c0 -6.66 -4.93 -18.86 -9.98 -24.65 -7.27 -8.14 -13.44 -11.09 -23.05 -10.85 -17.26 0.37 -31.19 12.45 -36.61 31.56 -3.82 13.19 0.37 30.45 10.23 41.54 5.92 6.78 17.75 12.33 28.23 13.31 0.86 0.12 4.68 -1.11 8.51 -2.47z m127.45 -3.45 c3.82 -2.96 5.92 -3.82 10.35 -3.82 5.42 0 5.67 0.12 5.67 3.45 l0 3.57 9 -2.22 c4.81 -1.23 10.11 -2.34 11.59 -2.34 4.44 0 4.44 -2.34 -0.12 -3.08 l-4.19 -0.86 -0.74 -24.78 c-0.49 -13.68 -0.74 -39.94 -0.49 -58.30 l0.37 -33.40 -4.31 0.99 c-4.19 0.99 -15.28 4.68 -20.34 6.78 -2.10 0.86 -1.60 1.23 2.47 1.73 l4.93 0.62 0.37 18.24 0.37 18.12 -4.19 0 c-2.34 0 -6.90 -1.11 -10.11 -2.59 -4.19 -1.85 -7.15 -2.34 -10.48 -1.85 -16.52 2.59 -28.84 15.28 -33.28 33.90 -4.31 18.12 5.67 40.18 21.57 47.83 8.26 3.94 15.04 3.33 21.57 -1.97z m-584.89 1.48 c-1.36 -0.25 -3.70 -0.74 -5.18 -1.11 l-2.84 -0.49 0 -28.72 c0 -24.90 0.25 -29.09 2.10 -31.68 1.11 -1.73 2.71 -3.45 3.33 -3.94 0.74 -0.49 -0.49 -0.99 -2.59 -0.99 l-4.07 0 0 -6.90 c0 -5.05 -0.37 -6.78 -1.48 -6.29 -0.86 0.25 -6.78 2.10 -12.94 4.07 -11.96 3.70 -14.30 5.42 -7.27 5.42 2.71 0 4.44 0.74 4.93 1.97 0.37 1.11 0.74 15.90 0.74 33.03 0 32.54 -0.25 34.39 -5.55 35.62 -1.36 0.37 5.55 0.62 15.41 0.62 9.86 0 16.76 -0.25 15.41 -0.62z m235.43 -0.25 l-3.70 -0.74 -0.37 -30.69 -0.25 -30.82 3.33 -3.45 3.33 -3.45 -3.94 0 c-3.82 0 -3.94 -0.12 -3.94 -5.55 0 -3.08 -0.37 -5.55 -0.86 -5.55 -0.62 0 -5.92 1.60 -12.08 3.57 -11.46 3.70 -14.79 6.29 -8.14 6.29 l3.82 0 -0.25 34.76 -0.37 34.76 -3.08 0.86 c-1.73 0.49 4.44 0.86 13.56 0.86 9.12 0 15.04 -0.37 12.94 -0.86z m52.76 -0.25 l-3.82 -1.11 -0.49 -30.57 c-0.37 -27.86 -0.62 -30.94 -2.96 -35.99 -3.08 -6.66 -8.63 -11.71 -15.04 -13.68 -3.82 -1.11 -5.67 -0.86 -11.46 1.23 -3.82 1.48 -9.12 4.56 -11.71 6.78 l-4.81 4.31 4.93 -1.11 c11.22 -2.59 20.83 -0.37 22.19 5.30 0.37 1.48 0.49 16.52 0.37 33.53 l-0.37 30.69 -3.08 0.86 c-1.73 0.49 4.44 0.86 13.56 0.86 12.08 0 15.53 -0.25 12.70 -1.11z m47.09 0.25 l-4.93 -0.74 0 -34.51 0 -34.51 8.38 -0.37 8.26 -0.37 0 -4.19 0 -4.31 -8.63 0 -8.63 0 0 -15.04 c0.12 -16.89 1.23 -24.16 4.44 -26.50 1.23 -0.86 4.93 -1.60 8.38 -1.60 5.05 0 6.78 0.62 9.61 3.33 l3.45 3.33 3.08 -2.96 c3.82 -3.57 3.82 -5.05 0 -8.63 -6.90 -6.41 -26.87 -3.20 -35.99 5.92 -7.15 7.15 -9.37 13.68 -9.98 28.97 l-0.49 13.19 -3.33 0 c-4.07 0 -6.29 2.10 -6.29 5.79 0 2.47 0.62 2.84 4.93 2.84 l4.93 0 0 34.51 0 34.51 -3.33 0.74 c-1.97 0.37 -3.94 0.86 -4.68 1.11 -0.62 0.25 7.15 0.37 17.26 0.37 10.23 -0.12 16.27 -0.49 13.56 -0.86z m57.93 0 l-3.70 -0.74 -0.86 -39.20 c-0.37 -21.57 -0.99 -39.44 -1.23 -39.81 -0.37 -0.25 -3.82 0.62 -7.89 1.97 -3.94 1.23 -9.61 2.96 -12.57 3.70 -5.79 1.48 -5.92 3.70 -0.12 3.70 l3.57 0 -0.25 34.76 -0.37 34.76 -3.08 0.86 c-1.73 0.49 4.44 0.86 13.56 0.86 9.12 0 15.04 -0.37 12.94 -0.86z m130.41 -0.37 l-4.07 -1.36 0 -60.89 0 -60.77 -2.84 0.62 c-9.37 2.47 -24.16 7.64 -24.53 8.63 -0.25 0.74 1.97 1.36 4.93 1.60 l5.18 0.37 0 55.35 0 55.35 -3.94 1.23 c-3.08 0.86 0.25 1.11 12.57 1.11 13.31 0 15.78 -0.25 12.70 -1.23z m-499.10 -66.56 c3.33 -5.18 3.57 -8.75 0.74 -11.83 -4.81 -5.18 -16.64 -1.73 -23.05 6.78 l-2.96 3.82 7.15 -0.62 c6.04 -0.49 7.64 -0.25 10.23 1.97 3.94 3.20 5.67 3.20 7.89 -0.12z m360.79 -36.61 c1.97 -1.97 3.57 -4.81 3.57 -6.29 0 -3.33 -6.78 -9.86 -10.11 -9.86 -3.20 0 -9.61 6.53 -9.61 9.86 0 3.45 6.41 9.86 9.86 9.86 1.48 0 4.31 -1.60 6.29 -3.57z"/>
  <path d="M902.29 421.81 c0 -6.53 3.20 -15.41 6.90 -18.86 2.47 -2.34 4.81 -2.96 11.46 -3.33 7.40 -0.49 8.63 -0.25 12.08 2.71 4.31 3.57 6.90 11.34 6.29 18.61 l-0.37 4.93 -18.12 0.37 -18.24 0.37 0 -4.81z"/>
  <path d="M988.58 421.93 c0 -7.03 2.22 -13.68 6.04 -17.87 2.96 -3.33 4.31 -3.82 11.96 -4.31 8.26 -0.62 9 -0.49 12.70 2.84 3.20 2.96 4.19 5.05 5.30 11.71 2.22 12.57 2.71 12.20 -18.12 12.20 l-17.87 0 0 -4.56z"/>
  <path d="M1278.25 421.93 c0 -7.03 2.22 -13.68 6.04 -17.87 2.96 -3.33 4.31 -3.82 11.96 -4.31 7.89 -0.62 8.88 -0.37 12.45 2.59 4.19 3.57 7.15 12.82 6.29 19.85 l-0.37 3.70 -18.12 0.37 -18.24 0.37 0 -4.68z"/>
  <path d="M1424.93 467.17 c-10.35 -2.47 -15.28 -14.67 -14.55 -36.24 0.37 -11.71 0.86 -14.42 3.45 -18.98 3.57 -6.41 7.03 -8.75 14.05 -9.61 8.14 -1.11 16.02 0.37 19.72 3.82 l3.20 2.96 0 25.39 c0 25.02 0 25.39 -2.96 28.35 -4.81 4.81 -13.56 6.53 -22.93 4.31z"/>
 </g>
 <g fill="#114826">
  <path d="M446.22 638.51 c-40.18 -5.67 -77.04 -26.87 -101.69 -58.55 -18.12 -23.30 -28.60 -48.20 -32.54 -77.41 -3.82 -27.86 1.23 -59.54 13.19 -83.57 7.27 -14.55 8.63 -14.79 15.65 -3.08 l5.30 8.51 -3.57 7.52 c-7.03 15.28 -9.98 28.23 -10.60 46.96 -0.49 14.05 -0.12 19.48 1.85 28.97 6.53 31.43 23.67 60.65 43.76 74.45 l6.90 4.68 6.53 -1.48 c10.72 -2.59 18.24 -7.15 28.10 -17.13 10.85 -10.85 16.76 -21.32 21.57 -37.72 4.44 -15.53 4.44 -36.36 -0.12 -51.40 -0.49 -1.73 -1.97 -2.22 -6.78 -2.22 -26.38 0 -54.73 -15.41 -73.59 -40.18 -8.88 -11.59 -18.12 -35.50 -20.34 -52.26 -1.23 -9.24 -1.23 -9.24 22.19 -9.12 18.98 0 21.69 0.37 31.68 3.45 6.16 1.85 16.02 5.92 21.94 9 6.04 3.08 11.22 5.30 11.46 5.05 0.37 -0.37 -0.99 -4.93 -2.96 -10.35 -14.55 -40.06 -2.96 -88.26 30.08 -124.62 8.88 -9.86 10.72 -9.98 19.11 -0.74 17.50 19.23 31.93 48.20 35.75 71.86 2.71 17.38 0.37 38.34 -6.04 54.98 -1.97 5.05 -3.08 9.12 -2.47 9.12 0.49 0 4.68 -1.97 9 -4.44 16.02 -8.75 46.96 -14.91 69.77 -13.81 l8.01 0.37 0.37 6.16 c0.49 8.14 -4.44 27.24 -10.11 39.07 -7.89 16.64 -21.82 32.30 -37.84 42.77 -9.61 6.29 -27.61 12.08 -40.18 13.19 -5.55 0.49 -10.60 1.23 -11.34 1.60 -0.74 0.49 -2.22 6.04 -3.33 12.45 -2.47 14.30 -1.60 26.63 2.71 41.79 4.07 13.81 9.98 24.28 19.72 34.51 8.63 9.24 17.75 14.79 29.71 18.12 l7.64 2.10 4.44 -3.33 c23.67 -18.12 42.03 -51.03 46.35 -82.96 2.84 -21.82 -0.62 -48.57 -8.88 -66.81 -1.97 -4.31 -3.57 -8.38 -3.57 -9.12 0 -2.10 10.35 -19.35 11.71 -19.35 3.70 0 15.78 29.09 19.85 48.07 3.20 14.67 3.20 45.73 0 60.40 -13.68 62.99 -61.39 110.69 -122.77 122.77 -11.71 2.34 -35.13 3.20 -45.61 1.73z m-17.26 -173.31 c0 -0.37 -2.59 -4.68 -5.79 -9.49 -7.15 -10.85 -25.02 -28.72 -37.72 -37.84 -9 -6.29 -9.49 -6.90 -9.49 -11.34 0 -4.56 0.12 -4.68 4.31 -4.68 8.63 0 35.87 16.02 50.29 29.58 4.56 4.19 10.72 10.97 13.81 15.04 6.41 8.51 6.90 7.77 2.34 -3.70 -5.05 -12.45 -10.85 -21.45 -19.11 -29.71 -12.82 -12.82 -25.64 -20.22 -43.14 -24.65 -10.48 -2.71 -31.31 -4.68 -32.17 -3.08 -1.48 2.47 3.08 18 8.26 28.47 12.70 25.64 32.05 42.28 57.93 49.80 8.14 2.34 10.48 2.71 10.48 1.60z m86.28 -3.82 c21.69 -7.15 40.80 -24.28 52.14 -46.59 2.84 -5.67 6.90 -18.12 8.88 -26.99 l0.74 -3.57 -12.20 0.74 c-41.05 2.71 -70.63 23.05 -84.07 57.69 -4.81 12.45 -4.68 14.05 0.25 6.53 12.94 -19.35 50.17 -46.10 64.47 -46.10 5.55 0 5.55 0 5.55 4.19 0 3.82 -0.86 4.81 -8.26 10.11 -15.78 11.22 -33.77 29.95 -42.28 44.13 l-2.84 4.68 4.19 -0.86 c2.34 -0.49 8.38 -2.22 13.44 -3.94z m-58.55 -107.86 c0.99 -20.09 1.85 -37.47 1.85 -38.46 0 -2.96 9.49 -2.71 10.35 0.25 0.37 1.11 1.23 16.76 1.97 34.76 0.74 18 1.60 37.84 1.97 44.13 l0.74 11.59 3.08 -2.96 c1.73 -1.60 5.79 -6.90 9 -11.71 15.65 -23.67 17.75 -52.14 6.04 -81.60 -6.66 -16.76 -25.52 -45.48 -28.60 -43.64 -0.62 0.37 -4.44 5.18 -8.51 10.72 -8.38 11.09 -19.48 33.03 -22.56 44.50 -3.08 11.46 -3.70 32.79 -1.36 43.14 2.71 11.22 10.23 26.38 17.63 35.75 l5.92 7.27 0.25 -8.51 c0.25 -4.81 1.23 -25.15 2.22 -45.24z"/>
  <path d="M929.53 615.70 c-4.31 -6.04 -6.29 -7.03 -6.29 -3.08 0 1.60 -0.86 2.47 -2.47 2.47 -1.97 0 -2.47 -0.86 -2.47 -4.19 0 -2.22 0.86 -4.81 1.85 -5.67 0.99 -0.86 1.85 -2.59 1.85 -3.82 0 -3.82 2.10 -2.71 6.41 3.33 l4.07 5.67 0.37 -6.90 c0.37 -5.92 0.74 -6.90 2.71 -6.90 2.34 0 2.47 0.99 2.47 12.33 0 11.09 -0.25 12.33 -2.22 12.33 -1.36 0 -4.07 -2.47 -6.29 -5.55z"/>
  <path d="M954.31 618.54 c0.25 -2.34 0.99 -2.71 4.19 -2.47 5.18 0.49 7.15 -2.22 6.29 -8.38 -0.62 -4.56 -0.37 -4.93 2.22 -4.93 3.33 0 4.44 4.44 2.84 10.85 -1.36 4.93 -5.30 7.64 -11.22 7.64 -4.19 0 -4.68 -0.37 -4.31 -2.71z"/>
  <path d="M984.26 617.18 c-1.48 -2.71 -1.97 -5.30 -1.36 -7.40 0.99 -4.07 3.20 -4.44 3.20 -0.62 0 3.70 1.97 1.36 3.33 -3.94 1.11 -4.44 5.30 -6.90 5.30 -3.20 0 1.11 0.74 1.97 1.73 1.97 0.99 0 2.10 1.73 2.59 3.70 0.74 3.08 1.11 3.57 2.59 2.34 0.86 -0.74 2.47 -1.11 3.45 -0.74 1.60 0.62 1.60 1.48 0 6.41 -2.47 7.03 -5.79 7.52 -7.89 1.11 -1.85 -5.42 -4.93 -5.18 -6.66 0.49 -1.36 5.05 -3.45 5.05 -6.29 -0.12z"/>
  <path d="M1189.50 618.78 c0 -1.36 0.86 -4.44 1.73 -6.78 1.85 -4.19 2.10 -4.31 8.51 -4.31 7.27 0 8.26 0.99 8.26 9 0 3.57 -2.10 4.56 -3.20 1.48 -0.49 -1.23 -2.47 -1.85 -5.42 -1.85 -3.57 0 -4.81 0.49 -5.30 2.47 -0.86 3.20 -4.56 3.20 -4.56 0z"/>
  <path d="M1343.21 619.03 c-1.23 -1.23 -2.10 -2.59 -2.10 -2.96 0 -1.23 4.93 -1.97 5.67 -0.86 0.99 1.60 5.92 1.36 7.64 -0.37 0.86 -0.86 1.48 -2.47 1.48 -3.70 0 -1.36 0.86 -2.22 2.47 -2.22 3.57 0 3.20 5.55 -0.62 9.24 -3.70 3.82 -11.46 4.19 -14.55 0.86z"/>
  <path d="M1312.76 607.07 c0 -9.61 0.25 -10.48 2.47 -10.48 2.22 0 2.47 0.86 2.47 10.48 0 9.61 -0.25 10.48 -2.47 10.48 -2.22 0 -2.47 -0.86 -2.47 -10.48z"/>
  <path d="M1112.58 614.59 c0.37 -0.99 -0.37 -1.97 -1.97 -2.34 -2.84 -0.74 -3.08 -5.30 -0.25 -5.05 0.74 0.12 2.84 0.25 4.56 0.37 2.10 0.12 3.08 0.86 3.08 2.47 0 3.94 -1.36 6.29 -3.82 6.29 -1.36 0 -1.97 -0.62 -1.60 -1.73z"/>
  <path d="M686.83 538.42 l0.37 -4.07 63.23 -0.37 63.11 -0.25 0 4.31 0 4.31 -63.60 0 -63.48 0 0.37 -3.94z"/>
  <path d="M1347.52 539.03 c0.25 -2.84 1.11 -3.57 5.18 -4.31 2.59 -0.62 31.43 -0.86 64.10 -0.74 l59.29 0.37 0.37 4.07 0.37 3.94 -64.84 0 -64.84 0 0.37 -3.33z"/>
  <path d="M737.49 481.96 c-23.05 -4.07 -41.54 -19.97 -49.43 -42.28 -4.07 -11.83 -5.05 -30.08 -2.22 -41.54 5.67 -22.68 20.34 -39.57 40.92 -47.09 5.79 -2.10 9.98 -2.59 21.45 -2.71 14.30 0 14.55 0.12 28.72 6.04 1.48 0.62 2.10 0.25 2.10 -1.23 0 -1.85 0.74 -2.10 5.30 -1.36 2.84 0.49 5.55 1.23 6.04 1.73 0.37 0.49 1.11 9 1.60 19.11 l0.86 18.12 -4.07 0 c-3.94 0 -4.44 -0.49 -7.52 -7.15 -12.20 -26.38 -53 -21.08 -63.97 8.26 -5.42 14.67 -5.05 34.39 1.11 47.33 4.81 10.48 9.98 16.02 18.98 20.59 6.16 3.08 9 3.70 16.02 3.70 4.68 0 10.35 -0.86 12.70 -1.73 l4.31 -1.85 0 -12.70 c0 -17.26 -0.37 -18.24 -6.41 -18.24 l-4.81 0 0.37 -5.79 0.37 -5.92 5.55 -0.37 c3.08 -0.25 13.44 -0.12 23.17 0.37 l17.50 0.86 0 4.81 c0 4.31 -0.37 4.81 -2.96 4.81 -7.03 0 -6.90 -0.49 -6.90 25.39 l0 23.91 -3.33 0 c-1.73 0 -4.31 -0.86 -5.55 -2.10 -1.85 -1.73 -2.71 -1.73 -5.67 -0.37 -14.18 6.53 -31.80 9.49 -44.25 7.40z"/>
  <path d="M913.76 481.96 c-20.46 -4.31 -33.65 -22.68 -33.65 -46.96 0 -15.04 6.53 -29.58 17.13 -37.97 7.52 -5.92 12.57 -7.52 25.15 -7.89 9.61 -0.25 12.08 0.12 16.39 2.47 11.59 6.16 19.48 20.22 20.34 36.24 l0.37 6.66 -26.99 0.62 -27.12 0.62 0.37 3.70 c1.11 9 7.27 18 14.67 21.08 2.22 0.99 7.40 1.73 11.59 1.73 6.66 0 8.26 -0.49 13.44 -4.31 6.41 -4.68 9.37 -5.30 12.94 -2.59 2.22 1.60 2.10 1.85 -1.73 7.89 -9.86 15.41 -25.76 22.43 -42.90 18.74z m21.20 -60.52 c0.49 -0.74 0.25 -3.82 -0.62 -6.78 -4.31 -15.53 -21.08 -15.16 -26.38 0.49 -1.11 3.08 -1.97 6.04 -1.97 6.66 0 1.48 28.10 1.23 28.97 -0.37z"/>
  <path d="M998.93 481.47 c-13.07 -3.33 -21.57 -10.35 -28.35 -23.91 -3.33 -6.53 -3.57 -8.01 -3.57 -21.82 0 -13.44 0.25 -15.41 3.33 -21.82 7.27 -15.53 19.11 -23.67 36.36 -25.15 8.88 -0.74 10.60 -0.49 16.52 2.22 8.38 3.82 14.30 9.61 18 17.75 2.96 6.41 5.30 16.64 5.30 22.80 l0 3.57 -27.12 0 -27.12 0 0 4.07 c0.12 8.26 7.40 18.86 15.16 21.69 4.81 1.85 14.91 1.73 19.72 -0.25 2.22 -0.99 5.67 -3.20 7.77 -4.93 4.56 -3.94 6.29 -4.07 10.23 -0.99 l2.96 2.22 -3.82 5.42 c-5.67 8.26 -12.57 14.79 -18.61 17.50 -6.90 3.08 -18.49 3.82 -26.75 1.60z m22.19 -59.66 c0.25 -0.49 0 -3.57 -0.74 -6.78 -1.73 -8.14 -7.03 -12.45 -13.81 -11.34 -7.40 1.11 -11.59 5.79 -13.68 15.16 l-0.86 3.94 14.30 0 c7.77 0 14.42 -0.49 14.79 -0.99z"/>
  <path d="M1289.59 481.84 c-18.86 -3.70 -31.93 -20.59 -33.28 -42.90 -1.23 -21.69 8.51 -39.81 25.39 -47.33 8.38 -3.57 26.26 -3.70 33.03 0 11.59 6.16 18.74 18.86 20.83 37.10 l0.74 6.41 -27.24 0 -27.12 0 0 3.70 c0 12.57 11.46 23.42 24.65 23.42 7.27 0 12.57 -1.97 18.24 -6.78 4.07 -3.45 4.19 -3.45 8.38 -1.36 l4.31 1.97 -2.22 3.94 c-1.23 2.22 -5.30 7.15 -9 10.97 -10.35 10.60 -21.45 13.93 -36.73 10.85z m21.32 -60.15 c1.60 -2.59 -2.22 -12.57 -5.92 -15.65 -3.20 -2.71 -4.56 -3.08 -8.75 -2.34 -7.40 1.11 -11.59 5.79 -13.68 15.16 l-0.86 3.94 14.30 0 c7.77 0 14.42 -0.49 14.91 -1.11z"/>
  <path d="M1410.76 479.13 c-12.94 -6.16 -21.32 -20.46 -22.56 -38.34 -0.99 -16.39 3.70 -30.57 13.44 -40.31 9.86 -9.86 27.12 -13.81 38.70 -8.63 3.20 1.36 6.04 2.59 6.41 2.59 0.25 0 0.25 -6.53 0.12 -14.42 l-0.37 -14.55 -4.56 -0.37 c-4.44 -0.37 -4.68 -0.62 -4.68 -4.56 0 -3.94 0.37 -4.31 7.15 -6.78 5.79 -2.22 23.91 -7.27 26.13 -7.40 0.37 0 0.62 19.85 0.49 44.01 -0.12 24.28 0.12 50.91 0.49 59.17 l0.49 14.91 4.31 0.86 c3.94 0.74 4.19 0.99 3.82 5.18 l-0.37 4.44 -10.48 2.34 c-5.79 1.23 -12.82 2.71 -15.65 3.33 l-5.30 0.99 0 -4.07 c0 -5.42 -2.22 -5.42 -8.75 -0.25 -4.44 3.57 -6.04 4.07 -13.81 4.44 -7.27 0.25 -9.98 -0.12 -15.04 -2.59z m31.19 -18 c4.56 -2.47 5.18 -5.42 5.18 -27.24 0 -20.95 0 -21.08 -3.08 -23.91 -3.45 -3.20 -10.23 -5.05 -14.55 -3.82 -10.11 2.84 -14.67 10.11 -15.41 24.65 -1.36 25.52 11.22 39.20 27.86 30.32z"/>
  <path d="M812.31 476.66 c0 -3.33 2.10 -5.79 5.18 -5.79 1.11 0 2.71 -1.11 3.45 -2.34 1.36 -2.59 1.85 -55.10 0.49 -58.55 -0.49 -1.23 -2.22 -1.97 -4.93 -1.97 -4.07 0 -4.19 -0.25 -4.19 -4.68 l0 -4.56 14.67 -4.68 c8.01 -2.47 15.53 -4.56 16.64 -4.56 1.60 0 1.97 1.36 1.97 7.64 l0 7.52 3.70 -5.05 c4.81 -6.66 11.96 -10.11 21.08 -10.11 9 0 12.20 2.84 12.20 10.35 0 11.09 -7.64 18.37 -14.55 13.93 -7.77 -4.81 -8.38 -4.93 -12.82 -2.84 -7.77 3.70 -8.38 6.16 -8.38 33.77 0 26.63 -0.12 26.13 6.90 26.13 2.59 0 2.96 0.62 2.96 4.31 l0 4.31 -22.19 0 -22.19 0 0 -2.84z"/>
  <path d="M1051.69 476.29 c0.37 -3.20 1.73 -4.56 6.29 -5.92 1.97 -0.62 2.10 -3.20 2.10 -31.56 l0 -30.82 -3.70 0 c-2.96 0 -3.82 -0.62 -4.44 -3.33 -0.49 -1.73 -0.37 -4.07 0.25 -4.93 1.48 -2.34 22.06 -9 27.98 -9 l4.56 0 0 5.67 0 5.67 5.18 -4.44 c6.16 -5.30 16.39 -9.37 23.54 -9.37 6.04 0 13.93 3.33 17.75 7.52 6.41 7.03 7.03 10.60 7.52 43.39 l0.49 30.57 3.57 0.74 c3.08 0.62 3.57 1.23 3.57 4.81 l0 4.19 -20.22 0 c-19.72 0 -20.22 0 -20.83 -2.71 -0.86 -3.20 0.86 -5.67 4.44 -6.16 2.71 -0.37 2.71 -0.74 3.08 -27.49 0.12 -14.91 0 -28.35 -0.37 -29.83 -1.73 -7.27 -14.79 -8.01 -22.43 -1.23 l-4.07 3.57 0.25 27.36 0.37 27.24 3.57 0.62 c2.10 0.37 3.57 0.99 3.45 1.60 -0.12 0.49 -0.25 2.22 -0.25 3.94 l0 3.08 -21.08 0 -20.95 0 0.37 -3.20z"/>
  <path d="M1151.28 475.18 c0 -3.45 0.49 -4.31 2.34 -4.31 6.41 0 6.29 0.74 6.29 -32.17 l0 -30.69 -4.93 0 -4.93 0 0 -6.53 c0 -7.27 1.48 -9.49 6.29 -9.49 l3.33 0 0.49 -13.19 c0.37 -9.98 1.11 -14.67 3.08 -18.98 6.04 -13.44 19.23 -20.22 37.35 -19.35 8.75 0.37 10.23 0.74 13.19 3.70 6.78 6.90 2.47 18.24 -7.03 18.24 -3.20 0 -5.30 -0.86 -7.40 -3.08 -5.30 -5.67 -11.71 -3.33 -13.56 4.93 -0.62 2.71 -1.23 10.11 -1.23 16.39 l0 11.34 8.63 0 8.63 0 0 8.01 0 7.89 -8.26 0.37 -8.38 0.37 0 30.82 0 30.82 4.68 0.37 c4.31 0.37 4.56 0.62 4.56 4.68 l0 4.19 -21.57 0 -21.57 0 0 -4.31z"/>
  <path d="M1209.22 475.92 c0 -3.20 0.62 -3.94 4.07 -4.81 l3.94 -0.99 0.37 -30.94 0.25 -31.06 -3.94 -0.37 c-3.70 -0.37 -4.07 -0.74 -4.44 -4.93 -0.37 -4.44 -0.25 -4.56 4.93 -5.92 2.96 -0.74 10.23 -2.96 16.27 -4.93 6.04 -1.97 11.34 -3.45 11.71 -3.20 0.49 0.37 0.99 18.49 1.11 40.31 0.25 21.94 0.74 40.31 0.99 40.80 0.37 0.49 2.34 0.99 4.31 0.99 3.45 0 3.70 0.25 3.33 4.07 l-0.37 3.94 -21.20 0.37 -21.32 0.25 0 -3.57z"/>
  <path d="M1339.88 476.54 c0 -3.33 1.73 -5.05 6.53 -6.16 l3.33 -0.74 0 -51.77 0 -51.65 -5.18 -0.37 c-5.30 -0.37 -5.30 -0.37 -5.30 -5.18 l0 -4.81 15.41 -4.81 c8.51 -2.59 16.39 -4.68 17.63 -4.68 1.97 0 2.10 3.70 2.10 61.63 l0 61.51 4.44 0.86 c3.94 0.74 4.31 1.11 3.94 4.68 l-0.37 3.82 -21.20 0.37 -21.32 0.25 0 -2.96z"/>
  <path d="M1224.01 377.43 c-13.44 -6.66 -9.12 -26.13 5.79 -26.13 7.27 0 12.20 3.57 13.93 9.86 1.73 6.29 -0.74 12.57 -6.41 16.02 -5.05 3.08 -7.77 3.08 -13.31 0.25z"/>
 </g>
 <g fill="#63953f">
  <path d="M767.44 619.28 c-0.99 -2.47 -0.99 -16.27 0 -19.85 0.49 -1.60 1.60 -2.84 2.47 -2.84 1.36 0 1.73 2.71 1.73 12.33 0 9.74 -0.37 12.33 -1.73 12.33 -0.99 0 -2.10 -0.86 -2.47 -1.97z"/>
  <path d="M959.86 560.36 c-5.18 -1.97 -7.89 -3.82 -9.61 -7.03 -0.86 -1.85 -0.49 -2.71 1.97 -4.31 2.96 -1.97 3.33 -1.97 5.92 0.49 3.94 3.70 8.88 4.56 12.57 2.22 5.18 -3.45 3.94 -6.41 -3.70 -9.24 -3.82 -1.48 -7.15 -2.59 -7.52 -2.59 -0.37 0 -2.34 -1.11 -4.31 -2.47 -6.90 -4.93 -5.42 -16.15 2.59 -20.34 8.14 -4.19 22.19 -0.25 23.17 6.41 0.49 3.70 -5.05 5.30 -8.26 2.34 -4.68 -4.31 -14.67 -0.99 -11.71 3.94 0.74 1.11 4.68 2.96 8.63 4.19 9.24 2.71 13.19 6.53 13.19 13.07 0 2.59 -0.74 5.92 -1.48 7.40 -3.08 5.67 -13.93 8.63 -21.45 5.92z"/>
  <path d="M1172.86 560.85 c-2.10 -0.62 -5.42 -2.84 -7.40 -4.93 l-3.70 -3.82 -0.37 -18.49 -0.37 -18.37 4.31 0 4.44 0 0 15.90 c0 18.61 1.23 21.57 9.12 21.57 7.64 0 8.75 -2.22 9.12 -19.35 0.25 -8.26 0.99 -15.78 1.73 -16.52 0.74 -0.86 2.59 -1.60 4.19 -1.60 l2.96 0 0 16.39 c0 17.87 -1.36 22.56 -7.52 27.12 -3.82 2.71 -11.34 3.70 -16.52 2.10z"/>
  <path d="M845.59 539.53 c0 -22.56 0.37 -24.28 5.79 -24.28 l2.84 0 0 22.80 0 22.80 -4.31 0 -4.31 0 0 -21.32z"/>
  <path d="M884.05 538.42 l0.37 -22.56 4.31 -0.25 c4.19 -0.37 4.56 0 14.18 14.18 l9.86 14.42 0.37 -14.42 0.37 -14.55 4.19 0 4.31 0 0 22.80 0 22.80 -4.07 0 c-3.82 0 -4.68 -0.86 -12.57 -12.57 -4.81 -6.90 -9.37 -12.70 -10.11 -13.07 -1.23 -0.37 -1.60 2.71 -1.60 12.57 l0 13.07 -4.93 0 -4.93 0 0.25 -22.43z"/>
  <path d="M1018.78 559.62 c-0.49 -0.74 -0.74 -8.38 -0.62 -17.01 0.12 -8.63 0.25 -16.39 0.12 -17.13 -0.12 -1.11 -2.22 -1.60 -6.41 -1.60 l-6.16 0 0.37 -3.94 0.37 -4.07 16.64 0 16.64 0 0.37 4.07 c0.37 3.82 0.25 3.94 -3.94 3.94 -8.26 0 -8.14 -0.37 -8.14 19.23 l0 17.75 -4.19 0 c-2.34 0 -4.68 -0.62 -5.05 -1.23z"/>
  <path d="M1066.48 538.42 l0.37 -22.56 4.07 -0.37 3.94 -0.37 0 22.80 0 22.93 -4.31 0 -4.31 0 0.25 -22.43z"/>
  <path d="M1114.18 559.99 c-0.12 -0.62 -0.25 -8.75 -0.37 -18.24 l-0.12 -17.26 -5.79 -0.37 c-5.30 -0.37 -5.92 -0.74 -5.92 -3.33 0 -1.60 0.37 -3.20 0.99 -3.45 0.49 -0.37 7.89 -0.99 16.64 -1.36 l15.65 -0.99 0 4.44 c0 4.31 -0.12 4.44 -4.68 4.44 -2.59 0 -5.30 0.62 -6.16 1.48 -0.99 0.99 -1.48 6.90 -1.48 18.49 l0 17.01 -4.31 0 c-2.34 0 -4.44 -0.37 -4.44 -0.86z"/>
  <path d="M1235.10 542.36 l0 -18.49 -6.16 0 c-5.92 0 -6.16 -0.12 -6.16 -3.57 l0 -3.45 10.23 -0.74 c5.55 -0.49 13.07 -0.86 16.64 -0.86 l6.41 0 0 4.31 c0 4.19 -0.12 4.31 -4.68 4.31 -2.59 0 -5.30 0.62 -6.16 1.48 -0.99 0.99 -1.48 6.90 -1.48 18.49 l0 17.01 -4.31 0 -4.31 0 0 -18.49z"/>
  <path d="M1283.67 559.25 c-0.25 -0.86 -0.37 -10.97 -0.25 -22.43 l0.37 -20.95 14.18 0 14.18 0 0.37 4.07 0.37 3.94 -7.52 0 c-9.49 0 -12.33 1.48 -12.33 6.16 l0 3.70 8.75 0 8.63 0 -0.37 4.07 -0.37 3.94 -8.26 0.37 -8.38 0.37 0 4.81 0 4.93 9.86 0 9.86 0 0 4.31 0 4.31 -14.18 0 c-10.48 0 -14.42 -0.37 -14.91 -1.60z"/>
  <path d="M448.68 462.61 c-12.82 -21.82 -32.30 -39.32 -58.80 -52.63 -4.93 -2.47 -9.24 -4.44 -9.74 -4.44 -1.97 0 0.86 2.84 8.51 8.38 13.56 9.86 26.13 21.82 34.14 32.54 7.27 9.86 14.42 22.68 13.31 23.91 -1.23 1.11 -18.74 -2.10 -27.12 -4.93 -22.56 -7.89 -40.55 -24.41 -52.14 -47.95 -5.55 -11.22 -9.74 -26.50 -9 -32.79 l0.37 -3.20 14.79 0.25 c17.75 0.37 30.20 3.20 44.38 10.11 22.93 11.34 38.95 31.19 46.22 56.95 2.47 8.88 4.68 26.99 3.45 26.99 -0.37 0 -4.19 -5.92 -8.38 -13.19z"/>
  <path d="M470.87 468.40 c0 -10.72 3.94 -25.52 9.86 -37.60 8.51 -17.50 21.32 -30.32 38.95 -38.83 13.93 -6.90 26.50 -9.86 45.24 -10.72 l15.65 -0.74 0 4.31 c0 6.29 -4.44 22.68 -8.51 31.43 -7.64 16.27 -20.46 30.94 -34.88 40.31 -8.38 5.30 -16.15 8.51 -29.21 11.83 -10.48 2.59 -15.65 3.08 -16.64 1.48 -0.37 -0.62 1.97 -5.67 5.18 -11.34 7.15 -12.70 24.53 -31.31 40.18 -43.02 17.26 -12.82 6.90 -10.60 -14.67 3.20 -20.71 13.31 -33.40 26.50 -44.87 46.59 l-6.29 10.97 0 -7.89z"/>
  <path d="M1218.34 440.05 c0 -15.90 0.25 -22.43 0.37 -14.42 0.25 7.89 0.25 20.95 0 28.97 -0.12 7.89 -0.37 1.36 -0.37 -14.55z"/>
  <path d="M450.28 409.61 c-18.98 -18.61 -27.86 -44.87 -24.90 -73.84 1.60 -14.91 4.07 -23.91 11.09 -38.58 8.01 -17.01 23.42 -38.34 27.61 -38.34 2.47 0 13.93 14.42 21.08 26.50 13.81 23.67 18.37 40.43 17.38 65.08 -0.62 19.48 -3.94 30.32 -13.19 44.38 -5.67 8.51 -17.87 21.69 -18.98 20.46 -0.37 -0.25 -1.23 -14.91 -1.85 -32.54 -2.59 -61.76 -3.08 -68.29 -5.55 -65.95 -0.74 0.86 -4.44 71.25 -4.44 86.41 0 6.78 -0.49 12.20 -1.11 12.20 -0.62 0 -3.94 -2.59 -7.15 -5.79z"/>
  <path d="M498.23 302.61 c-2.10 -4.56 -1.73 -5.55 0.49 -1.48 1.11 1.97 1.73 3.82 1.36 4.07 -0.25 0.25 -1.11 -0.86 -1.85 -2.59z"/>
  <path d="M454.84 259.47 c2.34 -2.34 4.44 -4.31 4.81 -4.31 0.37 0 -1.23 1.97 -3.57 4.31 -2.34 2.34 -4.44 4.31 -4.81 4.31 -0.37 0 1.23 -1.97 3.57 -4.31z"/>
 </g>
 <g fill="#144126">
  <path d="M732.93 619.77 c-0.37 -0.86 -1.73 -5.18 -3.08 -9.49 -3.20 -9.86 -3.33 -12.45 -0.37 -12.45 1.85 0 2.71 1.60 3.82 6.90 0.86 3.70 1.97 6.53 2.34 6.04 0.49 -0.37 1.73 -3.70 2.71 -7.15 1.23 -4.07 2.71 -6.53 4.07 -6.78 2.22 -0.49 2.22 -0.49 4.93 9 l1.73 6.16 2.22 -7.64 c1.73 -5.92 2.84 -7.77 4.56 -7.77 2.96 0 2.84 1.97 -0.99 14.30 -3.82 12.20 -6.53 13.68 -9.37 5.18 -0.99 -2.84 -2.34 -5.30 -3.08 -5.55 -0.62 -0.25 -1.97 2.10 -2.84 5.18 -1.11 4.07 -2.22 5.55 -3.94 5.55 -1.23 0 -2.47 -0.74 -2.71 -1.48z"/>
  <path d="M767.93 608.92 c0 -11.22 0.25 -12.45 2.22 -12.08 1.48 0.25 2.22 1.73 2.47 5.05 0.37 4.44 0.62 4.68 4.31 4.31 3.45 -0.37 4.07 -0.86 4.56 -4.68 0.49 -3.33 1.23 -4.31 3.08 -4.31 2.34 0 2.47 0.86 2.47 11.71 0 10.85 -0.12 11.71 -2.47 11.71 -1.97 0 -2.59 -0.99 -2.84 -4.56 -0.37 -4.44 -0.62 -4.68 -4.56 -4.68 -3.94 0 -4.19 0.25 -4.56 4.56 -0.25 3.33 -0.99 4.81 -2.47 5.05 -1.97 0.37 -2.22 -0.86 -2.22 -12.08z"/>
  <path d="M797.52 608.92 l0 -12.33 8.01 0 c7.15 0 8.01 0.25 8.01 2.47 0 1.73 -0.86 2.47 -2.84 2.47 -1.60 0 -3.94 1.11 -5.18 2.47 -2.22 2.47 -2.10 2.47 2.22 2.47 3.70 0 4.56 0.49 4.56 2.47 0 2.10 -0.86 2.47 -4.93 2.47 -4.07 0 -4.93 0.37 -4.93 2.47 0 2.10 0.86 2.47 5.55 2.47 4.68 0 5.55 0.37 5.55 2.47 0 2.22 -0.86 2.47 -8.01 2.47 l-8.01 0 0 -12.33z"/>
  <path d="M823.40 608.92 l0 -12.33 6.16 0 c4.56 0 6.78 0.62 8.63 2.47 2.96 2.96 3.20 8.26 0.49 11.22 -1.73 1.97 -1.73 2.47 0 5.92 2.47 4.68 2.47 5.05 -0.49 5.05 -1.36 0 -2.84 -0.86 -3.20 -1.85 -0.49 -0.99 -2.10 -1.85 -3.70 -1.85 -1.85 0 -2.96 0.74 -2.96 1.85 0 0.99 -1.11 1.85 -2.47 1.85 -2.34 0 -2.47 -0.86 -2.47 -12.33z m11.71 -4.31 c0 -1.73 -0.99 -2.59 -3.33 -2.84 -2.96 -0.37 -3.45 0 -3.45 2.84 0 2.84 0.49 3.20 3.45 2.84 2.34 -0.25 3.33 -1.11 3.33 -2.84z"/>
  <path d="M850.52 608.92 l0 -12.33 7.40 0 c6.53 0 7.40 0.25 7.40 2.47 0 2.10 -0.86 2.47 -5.05 2.47 -4.07 0 -4.93 0.37 -4.56 2.22 0.25 1.36 1.73 2.22 4.44 2.47 2.96 0.25 3.94 0.99 3.94 2.84 0 1.85 -0.86 2.34 -4.31 2.34 -3.45 0 -4.31 0.49 -4.31 2.47 0 2.10 0.86 2.47 5.67 2.47 4.68 0 5.55 0.37 5.18 2.22 -0.37 1.73 -1.97 2.22 -8.14 2.47 l-7.64 0.37 0 -12.45z"/>
  <path d="M890.83 620.39 c-0.37 -0.62 -0.49 -5.92 -0.49 -12.08 0.25 -10.48 0.37 -11.09 3.08 -11.46 2.34 -0.37 2.71 0.12 2.71 4.31 l0.12 4.68 3.70 -4.56 c2.10 -2.59 4.93 -4.68 6.16 -4.68 3.08 0 2.96 0.86 -0.74 5.67 -3.94 5.05 -3.82 5.67 0.62 12.20 2.10 2.96 3.70 5.67 3.70 6.04 0 1.85 -5.42 0.49 -7.15 -1.85 -2.34 -2.71 -6.41 -2.22 -6.41 0.86 0 1.85 -4.31 2.47 -5.30 0.86z"/>
  <path d="M918.32 608.92 c0 -11.46 0.12 -12.33 2.47 -12.33 4.44 0 6.78 8.01 3.33 12.08 -0.74 0.99 -1.23 4.19 -0.99 7.15 0.25 4.81 0 5.42 -2.22 5.42 -2.47 0 -2.59 -0.62 -2.59 -12.33z"/>
  <path d="M951.10 618.05 c-4.44 -4.56 -4.44 -12.33 0 -17.63 4.31 -5.18 11.46 -5.42 15.90 -0.62 3.70 3.94 3.82 4.68 0.74 7.77 -2.34 2.34 -2.34 2.22 -3.08 -1.23 -0.99 -4.93 -6.41 -6.29 -9.61 -2.34 -3.70 4.56 -2.22 10.85 2.96 12.57 1.85 0.62 0.37 4.68 -1.85 4.68 -0.99 0 -3.20 -1.48 -5.05 -3.20z"/>
  <path d="M981.18 609.54 c-1.97 -6.41 -3.70 -12.08 -3.70 -12.45 0 -0.37 1.23 -0.49 2.71 -0.25 2.10 0.25 3.08 1.97 4.81 8.14 1.23 4.19 1.73 7.64 1.36 7.64 -0.49 0 0.12 0.62 1.36 1.36 2.96 1.73 2.84 7.27 -0.37 7.27 -1.85 0 -3.08 -2.22 -6.16 -11.71z"/>
  <path d="M997.33 617.31 c-0.74 -2.10 -1.11 -4.07 -0.74 -4.44 1.11 -1.11 -2.10 -5.30 -3.70 -4.68 -0.99 0.37 -1.85 -0.62 -2.22 -2.59 -0.99 -4.93 0.37 -7.89 3.20 -7.52 1.97 0.25 3.08 1.97 4.56 7.15 2.22 7.52 2.71 7.27 4.93 -2.10 1.11 -5.05 1.97 -6.53 3.82 -6.53 1.36 0 2.34 0.86 2.34 1.97 0 4.19 -3.94 15.04 -5.55 15.78 -0.99 0.37 -1.85 0.12 -1.85 -0.49 0 -0.74 -0.62 -1.23 -1.36 -1.23 -0.86 0 -0.99 1.36 -0.49 3.57 1.11 4.93 -1.36 5.92 -2.96 1.11z"/>
  <path d="M1019.39 608.92 c0 -11.46 0.12 -12.33 2.47 -12.33 2.22 0 2.47 0.86 2.47 9.86 l0 9.86 4.93 0 c4.07 0 4.93 0.37 4.93 2.47 0 2.22 -0.86 2.47 -7.40 2.47 l-7.40 0 0 -12.33z"/>
  <path d="M1042.81 608.92 l0 -12.33 8.01 0 c7.15 0 8.01 0.25 8.01 2.34 0 1.97 -0.99 2.47 -5.18 2.84 -7.03 0.49 -7.40 3.94 -0.62 4.44 6.29 0.49 5.92 4.31 -0.37 5.18 -2.84 0.37 -4.44 1.36 -4.68 2.84 -0.37 1.73 0.49 2.10 5.18 2.10 4.81 0 5.67 0.37 5.67 2.47 0 2.22 -0.86 2.47 -8.01 2.47 l-8.01 0 0 -12.33z"/>
  <path d="M1068.70 608.92 l0 -12.33 6.29 0 c5.30 0 6.78 0.62 9.86 3.57 2.84 2.96 3.57 4.68 3.57 9.12 0 7.64 -4.93 11.96 -13.68 11.96 l-6.04 0 0 -12.33z m12.57 5.30 c2.71 -2.34 2.96 -8.14 0.49 -10.23 -0.99 -0.74 -3.08 -1.23 -4.68 -0.99 -2.47 0.37 -2.84 1.11 -3.20 6.90 -0.37 5.92 -0.12 6.41 2.34 6.41 1.48 0 3.82 -0.86 5.05 -2.10z"/>
  <path d="M1100.25 617.43 c-2.34 -2.71 -3.20 -5.18 -3.20 -8.75 0 -9 9.61 -14.91 17.38 -10.85 2.59 1.48 3.08 4.31 0.99 5.67 -0.74 0.37 -1.97 0.12 -2.71 -0.62 -3.45 -3.45 -10.72 0.25 -10.72 5.55 0 3.82 3.57 7.89 6.90 7.89 3.45 0 5.18 -2.96 3.08 -5.42 -1.11 -1.36 -0.74 -1.73 2.10 -2.22 3.33 -0.49 3.57 -0.25 3.82 4.68 0.25 6.16 -1.73 7.89 -9.49 7.89 -4.07 0 -5.55 -0.74 -8.14 -3.82z"/>
  <path d="M1127.86 608.92 l0 -12.33 8.01 0 c7.15 0 8.01 0.25 8.01 2.34 0 1.97 -0.99 2.47 -5.18 2.84 -7.03 0.49 -7.40 3.94 -0.62 4.44 3.57 0.37 4.56 0.86 4.56 2.84 0 1.73 -0.86 2.34 -3.45 2.34 -3.33 0 -6.41 1.85 -6.41 3.94 0 0.49 2.47 0.99 5.55 0.99 4.68 0 5.55 0.37 5.55 2.47 0 2.22 -0.86 2.47 -8.01 2.47 l-8.01 0 0 -12.33z"/>
  <path d="M1172.24 611.51 c0 -9.86 0 -9.98 -3.08 -9.98 -2.22 0 -3.08 -0.62 -3.08 -2.47 0 -2.22 0.86 -2.47 9.24 -2.47 8.38 0 9.24 0.25 9.24 2.47 0 1.85 -0.86 2.47 -3.08 2.47 -2.84 0 -2.96 0.37 -3.33 9.61 -0.37 8.75 -0.62 9.49 -3.08 9.86 -2.71 0.37 -2.84 0.12 -2.84 -9.49z"/>
  <path d="M1188.26 620.39 c0 -0.49 2.10 -6.16 4.56 -12.45 3.82 -9.61 4.93 -11.34 7.03 -11.09 1.73 0.25 3.20 2.10 4.56 5.92 1.11 3.08 3.20 8.51 4.68 12.08 l2.59 6.41 -3.08 0 c-2.47 0 -3.20 -0.99 -4.44 -4.93 -1.36 -4.31 -1.97 -4.93 -5.18 -4.93 -2.10 0 -3.33 0.37 -2.96 0.86 0.49 0.37 0.12 1.60 -0.62 2.59 -0.86 0.99 -1.60 2.71 -1.60 3.82 0 1.11 -1.23 2.10 -2.71 2.34 -1.60 0.25 -2.84 0 -2.84 -0.62z"/>
  <path d="M1220.07 612.01 c-0.12 -5.05 -0.25 -10.48 -0.25 -11.96 -0.12 -1.97 0.74 -2.96 2.71 -3.20 2.34 -0.37 2.71 0.12 2.71 4.31 l0.12 4.68 3.70 -4.56 c2.10 -2.59 4.93 -4.68 6.16 -4.68 3.08 0 2.96 0.37 -0.86 6.16 -3.57 5.42 -3.45 6.16 1.97 14.55 l2.71 3.94 -3.08 0 c-2.22 0 -3.82 -1.11 -5.42 -3.70 -1.11 -1.97 -2.84 -3.70 -3.70 -3.70 -0.99 0 -1.60 1.48 -1.60 3.70 0 2.84 -0.49 3.70 -2.47 3.70 -2.22 0 -2.47 -0.86 -2.71 -9.24z"/>
  <path d="M1247.43 608.92 l0 -12.45 7.64 0.37 c6.16 0.25 7.77 0.74 8.14 2.59 0.37 1.73 -0.49 2.10 -5.30 2.10 -4.81 0 -5.67 0.37 -5.30 2.22 0.25 1.48 1.73 2.22 5.05 2.47 3.57 0.37 4.56 0.86 4.56 2.84 0 1.97 -0.86 2.34 -4.93 2.34 -4.07 0 -4.93 0.37 -4.93 2.47 0 2.10 0.86 2.47 5.55 2.47 4.68 0 5.55 0.37 5.55 2.47 0 2.22 -0.86 2.47 -8.01 2.47 l-8.01 0 0 -12.33z"/>
  <path d="M1274.30 619.89 c-1.23 -0.62 -2.22 -2.10 -2.22 -3.08 0 -1.48 1.11 -1.73 5.67 -0.99 5.05 0.74 5.67 0.62 5.18 -1.48 -0.25 -1.36 -2.10 -2.71 -4.56 -3.45 -7.64 -2.22 -8.14 -11.96 -0.62 -13.81 7.64 -1.97 13.93 4.31 7.03 7.03 -3.33 1.23 -3.33 1.36 -0.99 2.59 5.79 3.08 7.15 8.01 3.08 12.08 -2.71 2.71 -9 3.20 -12.57 1.11z"/>
  <path d="M1313.25 608.92 l0.12 -12.33 6.41 0 c5.42 0 6.78 0.49 8.88 3.20 3.08 3.94 3.20 5.79 0.62 10.23 -1.85 3.08 -1.85 3.70 0 7.27 1.97 3.82 1.97 3.94 -0.86 3.94 -1.85 0 -3.57 -1.23 -4.93 -3.70 -1.23 -1.97 -3.08 -3.70 -4.07 -3.70 -1.11 0 -1.73 1.36 -1.73 3.70 0 2.84 -0.62 3.70 -2.34 3.70 -2.10 0 -2.34 -0.99 -2.10 -12.33z m11.59 -4.19 c-0.25 -1.85 -1.36 -2.71 -3.70 -2.96 -2.96 -0.37 -3.45 0 -3.45 2.59 0 3.82 0.62 4.31 4.44 3.57 2.34 -0.37 2.96 -1.23 2.71 -3.20z"/>
  <path d="M1372.79 617.80 c-7.40 -7.64 -2.10 -21.20 8.38 -21.20 6.78 0 10.48 4.31 10.48 12.33 0 5.05 -0.62 6.90 -3.08 9.24 -4.31 4.44 -11.34 4.19 -15.78 -0.37z m13.19 -5.30 c0.62 -1.73 0.74 -4.68 0.25 -6.53 -0.62 -2.71 -1.48 -3.20 -5.05 -3.20 -4.44 0 -6.78 2.47 -6.78 7.27 0 6.41 9.49 8.51 11.59 2.47z"/>
  <path d="M1405.21 611.39 c0 -9.74 0 -9.86 -3.08 -9.86 -2.22 0 -3.08 -0.62 -3.08 -2.47 0 -2.22 0.86 -2.47 9.24 -2.47 8.38 0 9.24 0.25 9.24 2.47 0 1.85 -0.86 2.47 -2.96 2.47 -2.84 0 -3.08 0.49 -3.94 9.86 -0.74 8.51 -1.11 9.86 -3.08 9.86 -2.10 0 -2.34 -1.11 -2.34 -9.86z"/>
  <path d="M1341.23 616.81 c-8.01 -10.23 3.57 -24.90 14.91 -18.86 5.30 2.84 7.40 15.78 2.84 17.50 -1.73 0.74 -3.08 -2.59 -3.08 -8.01 0 -3.20 -2.84 -5.92 -6.04 -5.92 -2.22 0 -6.29 4.81 -6.29 7.40 0 1.48 1.36 3.94 3.08 5.67 2.71 2.71 2.84 3.08 0.86 3.82 -1.11 0.37 -2.47 0.99 -2.96 1.23 -0.37 0.25 -1.97 -1.11 -3.33 -2.84z"/>
  <path d="M375.34 609.91 c-4.68 -3.45 -7.89 -6.53 -7.03 -6.90 0.86 -0.25 3.57 1.36 6.16 3.70 2.47 2.22 5.92 5.05 7.52 6.16 1.73 1.23 2.84 2.47 2.47 2.71 -0.25 0.37 -4.44 -2.22 -9.12 -5.67z"/>
  <path d="M556.78 577 c16.15 -15.78 26.50 -32.54 33.65 -54.48 9.24 -27.98 7.64 -62.99 -3.82 -88.50 -1.97 -4.31 -3.57 -8.38 -3.57 -9.12 0 -2.22 10.48 -19.35 11.83 -19.35 1.73 0 11.96 20.59 15.16 30.82 4.81 15.16 9.49 45.11 6.41 40.68 -0.74 -0.99 -1.36 -4.56 -1.36 -8.01 0 -3.33 -0.62 -8.14 -1.23 -10.48 -4.19 -16.39 -6.16 -22.68 -7.27 -23.79 -0.74 -0.74 -1.36 -2.10 -1.36 -3.08 0 -2.34 -9.86 -22.43 -11.09 -22.43 -0.62 0 -1.36 1.60 -1.85 3.57 -0.37 1.97 -1.48 4.31 -2.47 5.05 -3.33 2.71 -3.33 8.01 -0.12 16.15 8.38 21.32 11.09 46.10 7.64 68.90 -2.10 13.68 -6.66 29.46 -10.97 37.60 -3.94 7.52 -13.56 21.57 -14.67 21.57 -0.49 0 -0.99 0.99 -0.99 2.22 0 2.34 -14.67 17.01 -19.72 19.85 -1.73 0.86 0.99 -2.34 5.79 -7.15z"/>
  <path d="M370.78 578.48 c-13.56 -12.20 -31.19 -36.98 -30.32 -42.77 0.25 -1.97 1.23 -0.74 3.70 4.44 5.55 12.08 14.55 24.65 23.91 34.02 9.74 9.49 11.22 11.83 2.71 4.31z"/>
  <path d="M580.57 580.94 c0 -0.62 0.74 -1.85 1.60 -2.59 0.74 -0.86 3.94 -5.30 7.03 -9.74 3.08 -4.56 6.41 -8.51 7.40 -8.75 1.60 -0.37 1.60 -0.25 0 0.86 -0.99 0.74 -1.36 1.36 -0.86 1.36 0.99 0 -5.79 10.72 -8.26 12.94 -0.74 0.74 -1.97 2.34 -2.71 3.70 -1.36 2.47 -4.19 3.94 -4.19 2.22z"/>
  <path d="M418.60 569.36 c4.81 -5.05 10.60 -12.45 12.94 -16.52 2.84 -5.18 4.31 -6.66 4.56 -5.18 0.49 2.34 -3.45 8.88 -9 14.67 -1.73 1.85 -3.08 3.82 -3.08 4.44 0 1.36 -7.15 7.77 -11.09 9.98 -1.73 0.86 0.86 -2.47 5.67 -7.40z"/>
  <path d="M501.07 561.47 c-3.45 -4.44 -7.40 -9.61 -8.88 -11.59 -6.78 -8.63 -12.33 -33.65 -11.09 -49.92 1.23 -15.78 2.84 -13.31 2.96 4.44 0 14.18 0.49 17.87 3.33 27.49 3.57 11.83 8.51 21.57 14.79 29.58 4.19 5.18 6.04 8.01 5.42 8.01 -0.25 0 -3.20 -3.57 -6.53 -8.01z"/>
  <path d="M606.58 535.09 c1.60 -7.40 3.33 -11.22 5.05 -11.22 0.99 0 1.11 0.37 0.37 0.99 -0.62 0.49 -1.23 1.48 -1.23 2.10 0 2.59 -3.45 12.94 -4.31 12.94 -0.49 0 -0.49 -2.10 0.12 -4.81z"/>
  <path d="M314.45 516.85 c-5.55 -24.16 -4.81 -51.40 2.34 -76.67 3.20 -11.22 10.35 -27.24 12.33 -27.24 0.74 0 1.11 0.37 0.86 0.99 -12.45 23.79 -18.98 59.66 -15.65 85.91 1.60 12.20 2.47 22.80 1.85 22.80 -0.25 0 -0.99 -2.59 -1.73 -5.79z"/>
  <path d="M611.76 515.74 c0.74 -4.56 1.60 -6.29 2.71 -5.30 0.99 1.11 -0.86 9.74 -2.22 9.74 -0.74 0 -0.86 -1.85 -0.49 -4.44z"/>
  <path d="M330.47 474.07 c-0.25 -10.48 3.45 -29.95 6.78 -36.73 3.94 -7.77 5.79 -7.52 2.84 0.37 -4.07 10.48 -7.27 23.91 -8.38 34.02 l-0.99 9.61 -0.25 -7.27z"/>
  <path d="M946.67 471.48 c3.70 -3.82 6.90 -6.29 7.27 -5.42 0.49 1.60 -7.15 9.74 -9.37 9.74 -0.86 0 -1.60 0.62 -1.60 1.23 0 0.74 -0.62 1.23 -1.48 1.23 -0.86 0 1.48 -3.08 5.18 -6.78z"/>
  <path d="M706.80 467.79 c-6.90 -5.79 -15.78 -19.11 -19.23 -28.97 -4.93 -14.18 -3.33 -48.32 2.34 -50.17 0.86 -0.37 0.37 2.71 -1.11 7.27 -2.47 7.89 -3.33 26.01 -1.60 35.50 2.22 12.70 12.33 29.83 20.83 35.62 2.47 1.60 4.44 3.33 4.44 3.94 0 1.60 -0.12 1.48 -5.67 -3.20z"/>
  <path d="M1241.27 431.42 c0 -43.02 0.37 -40.80 -7.15 -38.09 -2.10 0.74 -4.81 1.11 -6.04 0.86 -1.23 -0.25 1.11 -1.60 5.67 -3.20 4.31 -1.48 8.26 -2.47 8.63 -2.22 1.48 0.99 1.60 82.09 0.25 82.09 -0.99 0 -1.36 -12.33 -1.36 -39.44z"/>
  <path d="M1371.68 468.65 c-0.25 -1.11 -0.37 -15.65 -0.25 -32.30 0.12 -16.64 -0.12 -42.77 -0.49 -58.18 -0.74 -32.54 0.12 -31.19 -13.56 -24.28 -4.19 2.10 -8.01 3.45 -8.51 3.20 -1.73 -0.99 -6.53 1.48 -6.53 3.45 0 1.36 1.11 1.85 3.57 1.60 4.93 -0.37 7.40 1.97 6.90 6.78 -0.25 2.22 -0.49 25.76 -0.49 52.39 -0.12 31.93 -0.49 48.20 -1.36 47.70 -0.74 -0.49 -1.23 -19.11 -1.23 -51.77 l0 -51.03 -5.18 -0.37 c-5.30 -0.37 -5.30 -0.37 -5.30 -5.18 l0 -4.81 15.41 -4.81 c8.51 -2.59 16.39 -4.68 17.63 -4.68 1.97 0 2.10 3.70 2.10 61.51 0 54.11 -0.62 69.03 -2.71 60.77z"/>
  <path d="M573.18 425.26 c0 -2.59 6.29 -13.56 7.77 -13.56 1.11 0 0.99 0.37 -0.12 1.11 -0.99 0.49 -1.60 1.36 -1.48 1.85 0.49 1.60 -3.94 11.83 -5.05 11.83 -0.62 0 -1.11 -0.62 -1.11 -1.23z"/>
  <path d="M1135.26 408.37 c-2.96 -12.20 -11.71 -18.24 -25.15 -17.38 -5.79 0.25 -6.66 0.12 -4.81 -1.11 2.84 -2.22 11.83 -1.97 17.38 0.25 8.14 3.45 12.70 9.24 14.91 18.98 1.60 7.03 -0.49 6.41 -2.34 -0.74z"/>
  <path d="M584.76 389.88 l0.37 -11.34 -3.82 -1.48 -3.82 -1.60 3.45 -0.37 c6.04 -0.86 7.03 0.12 6.90 7.27 0 3.57 -0.86 9.37 -1.85 12.70 l-1.60 6.16 0.37 -11.34z"/>
  <path d="M342.18 397.28 c-1.48 -4.81 -3.08 -17.87 -2.34 -19.48 0.49 -1.36 2.47 -1.85 7.03 -1.73 6.29 0.25 6.29 0.25 1.36 0.99 l-4.93 0.74 0.37 10.85 c0.37 10.35 -0.12 13.07 -1.48 8.63z"/>
  <path d="M426.37 388.65 c-7.03 -18 -9.12 -30.20 -8.14 -48.81 1.48 -28.47 14.55 -58.30 35.99 -81.97 8.88 -9.74 10.72 -9.86 18.98 -0.86 10.97 12.08 11.96 15.04 1.73 5.18 -5.42 -5.18 -10.48 -9.49 -11.22 -9.49 -1.85 0 -16.02 15.65 -20.59 22.68 -2.22 3.45 -6.04 10.35 -8.63 15.41 -2.47 5.05 -5.30 9.98 -6.29 10.85 -0.86 0.99 -1.97 3.70 -2.34 6.29 -0.37 2.47 -1.60 8.14 -2.71 12.57 -0.99 4.44 -2.10 14.91 -2.47 23.42 -0.74 16.64 1.11 30.08 5.79 42.03 1.36 3.33 2.10 6.04 1.85 6.04 -0.37 0 -1.23 -1.48 -1.97 -3.33z"/>
  <path d="M1224.38 377.80 c-2.10 -0.86 -4.93 -3.20 -6.16 -5.05 -2.47 -3.94 -2.84 -12.08 -0.62 -14.30 1.36 -1.36 1.48 -0.49 0.86 4.68 -0.74 5.42 -0.49 6.66 2.10 9.74 2.59 2.96 4.07 3.45 8.88 3.45 4.56 0 6.41 -0.62 8.75 -2.96 6.90 -7.15 2.34 -19.60 -7.27 -19.60 -2.10 0 -5.79 0.49 -8.14 1.23 l-4.31 1.11 2.96 -2.34 c3.94 -3.33 12.70 -3.33 17.50 0.12 7.77 5.42 6.90 18.12 -1.60 23.30 -4.68 2.84 -7.52 2.96 -12.94 0.62z"/>
  <path d="M506.12 367.33 c0.12 -5.05 0.62 -13.19 1.11 -18.12 1.73 -17.50 -3.82 -38.95 -16.15 -62.13 -3.08 -6.04 -3.82 -9.12 -1.73 -7.89 2.22 1.36 11.96 21.82 15.28 31.93 6.04 18.74 7.15 40.80 2.71 58.67 l-1.60 6.78 0.37 -9.24z"/>
 </g>
</svg>